<svg width="36" height="24" viewBox="0 0 36 24" fill="none" xmlns="http://www.w3.org/2000/svg">
<g id="sa" clip-path="url(#clip0_590_85)">
<rect id="Rectangle 47" width="36" height="24" rx="2" fill="#006C35"/>
<path id="Path 1" fill-rule="evenodd" clip-rule="evenodd" d="M15.5175 5.66832C15.4867 5.6719 15.4572 5.68326 15.432 5.70134C15.3443 5.76019 15.1703 5.94134 15.165 6.14986C15.1597 6.26746 15.1375 6.26702 15.2145 6.34186C15.2702 6.42206 15.3257 6.41419 15.438 6.35534C15.4659 6.338 15.49 6.31505 15.5085 6.28794C15.5271 6.26083 15.5399 6.23015 15.546 6.19786C15.5727 6.06422 15.4054 6.26107 15.384 6.11237C15.3466 5.97427 15.4535 5.91749 15.555 5.78386C15.5573 5.72093 15.5585 5.66957 15.5175 5.66837L15.5175 5.66832ZM17.1525 5.67734C17.1211 5.68157 17.0827 5.72174 17.0295 5.81837C16.9911 5.91955 16.8267 6.07277 16.9455 6.38837C17.0427 6.58858 17.0826 6.91392 17.0385 7.27637C16.9886 7.36166 16.9314 7.44246 16.8675 7.51786C16.7435 7.65125 16.6092 7.61712 16.5061 7.56734C16.4097 7.5024 16.334 7.46909 16.2901 7.26283C16.298 6.93408 16.3171 6.396 16.2571 6.28181C16.1685 6.10498 16.0225 6.16838 15.9601 6.22181C15.6602 6.49598 15.5121 6.95894 15.4216 7.3273C15.3384 7.59576 15.2498 7.5181 15.1876 7.40981C15.0361 7.26787 15.0254 6.15782 14.8426 6.34032C14.5498 7.17744 15.0106 8.09448 15.3301 8.00534C15.5605 8.10077 15.7068 7.66214 15.8011 7.18186C15.8657 7.04707 15.915 7.03157 15.9482 7.10088C15.9397 7.73957 15.9939 7.88203 16.1582 8.07586C16.5244 8.35843 16.8274 8.11166 16.8512 8.08786L17.1361 7.80278C17.1995 7.73602 17.2834 7.73194 17.3731 7.79078C17.4602 7.86998 17.449 8.0064 17.6356 8.1013C17.7926 8.16408 18.1278 8.11656 18.2056 7.9813C18.3102 7.80197 18.3356 7.74034 18.3841 7.67232C18.4588 7.57291 18.5866 7.61693 18.5866 7.64832C18.5747 7.70376 18.4996 7.75848 18.5506 7.85832C18.6395 7.92494 18.6601 7.88232 18.7126 7.86734C18.8984 7.7785 19.0381 7.37534 19.0381 7.37534C19.0463 7.22496 18.9608 7.23614 18.9061 7.26734C18.8348 7.31093 18.8304 7.32576 18.7591 7.36934C18.6683 7.38283 18.4922 7.44278 18.4051 7.30786C18.3161 7.14562 18.3157 6.91949 18.2476 6.75586C18.2476 6.74395 18.1287 6.49858 18.2387 6.48288C18.2941 6.4932 18.4133 6.52402 18.4322 6.42437C18.4903 6.32726 18.3067 6.05184 18.1816 5.91288C18.0731 5.79379 17.9233 5.77925 17.7782 5.90088C17.6765 5.99438 17.6918 6.09883 17.6716 6.19786C17.6548 6.26807 17.6546 6.34124 17.671 6.41155C17.6874 6.48186 17.72 6.54737 17.7662 6.60288C17.8676 6.80294 18.0519 7.0596 17.9912 7.42186C17.9912 7.42186 17.8841 7.59427 17.6957 7.57186C17.6172 7.55472 17.4893 7.52074 17.4212 7.01837C17.3697 6.63811 17.4341 6.10531 17.2727 5.85586C17.2362 5.76173 17.2049 5.67034 17.1527 5.67734H17.1525ZM16.635 5.71766C16.5862 5.72194 16.5321 5.77877 16.4881 5.88869C16.4502 5.97226 16.404 6.4092 16.4115 6.4092C16.3814 6.53923 16.5474 6.59434 16.623 6.4272C16.7364 6.12077 16.7369 5.9904 16.7445 5.86022C16.7269 5.7612 16.6838 5.71344 16.635 5.71771V5.71766ZM18.546 5.75218C18.4958 5.75674 18.4559 5.78606 18.441 5.86018C18.4222 5.99821 18.4288 6.13853 18.4605 6.27418C18.483 6.3709 18.6237 6.5328 18.693 6.62669C19.0242 7.0716 19.3425 7.51867 19.6501 7.9812C19.6984 8.32464 19.7338 8.66059 19.7566 8.9952C19.8109 9.80059 19.8174 10.6085 19.7761 11.4146C19.9135 11.4201 20.1338 11.1927 20.2111 10.8597C20.2613 10.3989 20.1932 9.45902 20.1886 9.18715C20.1853 9.0743 20.1784 8.93962 20.1706 8.79864C20.5283 9.38323 20.8754 10.0026 21.2161 10.6826C21.3402 10.6236 21.3127 9.92424 21.2401 9.82613C20.9674 9.23923 20.5907 8.65973 20.4706 8.4371C20.4274 8.35666 20.2796 8.13206 20.1046 7.8731C20.0724 7.5035 20.0374 7.19059 20.0146 7.09608C19.9583 6.70546 20.1751 7.14014 20.1451 6.9131C20.0747 6.52301 19.8594 6.2579 19.6051 5.90059C19.5231 5.78438 19.5247 5.76067 19.3981 5.9291C19.3346 6.06958 19.3163 6.22628 19.3456 6.37762C19.3123 6.32923 19.2711 6.27202 19.2121 6.20064C18.9925 6.01219 18.9789 6.00187 18.7966 5.84813C18.739 5.80733 18.6297 5.74454 18.5461 5.75213L18.546 5.75218ZM24.21 5.81069C24.1856 5.8069 24.159 5.8189 24.129 5.8632C24.0922 5.89531 24.0627 5.93497 24.0425 5.97948C24.0223 6.024 24.0119 6.07233 24.0121 6.1212C24.026 6.32707 24.0626 6.53784 24.0766 6.74371C24.0814 6.77126 24.0866 6.79867 24.0916 6.82622C24.0751 6.80486 24.0576 6.78434 24.0391 6.76474C23.6378 6.3432 24.2234 6.69586 23.9626 6.37022C23.7418 6.12797 23.6774 6.05088 23.4886 5.90525C23.3939 5.84405 23.3367 5.72712 23.3056 5.92627C23.2894 6.10078 23.2849 6.27618 23.2921 6.4513C23.2914 6.53323 23.3763 6.68755 23.4496 6.77832C23.7173 7.10722 23.9907 7.45714 24.2656 7.82232C24.3234 8.56709 24.3389 9.24979 24.3976 9.99581C24.3893 10.3149 24.2911 10.7387 24.1981 10.7788C24.1981 10.7788 24.056 10.8604 23.9611 10.7698C23.8921 10.7421 23.6162 10.3093 23.6162 10.3093C23.4749 10.1797 23.3807 10.2168 23.2802 10.3093C23.0029 10.577 22.8775 11.0784 22.6892 11.4238C22.6406 11.5009 22.5038 11.5665 22.3517 11.4178C21.9654 10.8898 22.1913 10.1387 22.1432 10.3318C21.7991 10.7196 21.9515 11.3621 22.0292 11.5003C22.1426 11.7273 22.2344 11.8726 22.4552 11.9848C22.6562 12.1328 22.8128 12.0405 22.8992 11.9368C23.1015 11.7272 23.1042 11.1909 23.1992 11.0848C23.2658 10.89 23.4327 10.9235 23.5142 11.0099C23.588 11.1155 23.687 11.2011 23.8022 11.2589C23.9909 11.4253 24.2162 11.4557 24.4382 11.3039C24.5899 11.2188 24.6884 11.1082 24.7772 10.8899C24.8725 10.635 24.8252 9.29909 24.8042 8.5559C24.9468 8.75669 25.0874 8.96184 25.2272 9.16939C25.2902 9.80423 25.3132 10.4424 25.2961 11.0801C25.2817 11.2026 25.7235 10.7144 25.7206 10.4831C25.7186 10.2807 25.721 10.0973 25.7206 9.92659C25.9349 10.2689 26.1424 10.6168 26.3386 10.9691C26.4601 10.9047 26.4184 10.2166 26.3416 10.1216C26.1362 9.77702 25.8733 9.40469 25.6696 9.11659C25.6293 8.75299 25.5745 8.32402 25.5496 8.19259C25.5108 7.98763 25.4718 7.67981 25.4131 7.43659C25.397 7.3416 25.3483 7.03819 25.3636 7.0091C25.3876 6.94123 25.478 7.01126 25.5226 6.93259C25.5893 6.85987 25.2914 6.08779 25.1401 5.86757C25.0857 5.76883 24.9874 5.80301 24.8656 5.96357C24.7526 6.06917 24.794 6.31027 24.8371 6.53957C24.9491 7.12392 25.049 7.71902 25.1281 8.31259C24.9817 8.09496 24.803 7.83158 24.6271 7.57762C24.6223 7.55314 24.6046 7.46338 24.6046 7.46213C24.6046 7.45162 24.5803 6.9841 24.5596 6.87264C24.5559 6.82742 24.5452 6.81437 24.5926 6.82013C24.618 6.84525 24.6481 6.86513 24.6811 6.87864C24.7319 6.88795 24.7763 6.80213 24.7456 6.72264C24.5886 6.43306 24.4316 6.14222 24.2747 5.85264C24.2579 5.83249 24.2354 5.81785 24.2102 5.81064L24.21 5.81069ZM9.59257 5.82571C9.50559 5.82322 9.40959 5.87717 9.44708 5.98171C9.42524 6.03869 9.61738 6.23131 9.65108 6.3372C9.68132 6.41256 9.62108 6.6553 9.6841 6.67771C9.74199 6.70282 9.82177 6.50971 9.8521 6.3312C9.8689 6.23342 9.85618 5.89882 9.62862 5.83018C9.61679 5.82751 9.60473 5.82599 9.59262 5.82566L9.59257 5.82571ZM26.2442 5.82763C26.2244 5.8296 26.2003 5.86166 26.1633 5.94014C26.0742 6.08597 26.0436 6.34704 26.0793 6.57763C26.2936 8.02723 26.4529 9.43118 26.4858 10.7161C26.4738 10.8327 26.4466 10.9472 26.4048 11.0567C26.2783 11.2188 26.1387 11.4221 26.0073 11.5201C25.8759 11.6182 25.5962 11.7115 25.5048 11.7841C25.2147 11.9518 25.2133 12.1447 25.4478 12.1516C25.852 12.1047 26.3304 12.0715 26.6598 11.5741C26.748 11.4349 26.8518 11.0569 26.8563 10.8256C26.8872 9.46978 26.839 8.14406 26.6358 7.16414C26.6228 7.06867 26.5807 6.84926 26.5969 6.82066C26.623 6.75346 26.7553 6.82738 26.8023 6.75014C26.8714 6.67958 26.4603 6.15322 26.3163 5.92814C26.2875 5.8716 26.2698 5.82514 26.2443 5.82763H26.2442ZM22.0053 5.85014C21.9886 5.85302 21.9639 5.87842 21.9183 5.93866C21.8054 6.30787 21.7657 6.60936 21.8088 6.83866C22.0989 8.35229 22.396 9.73128 22.3488 11.1721C22.4864 11.1731 22.6454 10.8575 22.7133 10.5452C22.7505 10.1149 22.6885 9.85306 22.6773 9.60014C22.6661 9.34723 22.391 7.29547 22.3353 7.10414C22.2681 6.74237 22.6028 7.05658 22.5663 6.84614C22.4506 6.58085 22.1618 6.19459 22.0714 5.96414C22.0374 5.90242 22.033 5.84534 22.0054 5.85014H22.0053ZM11.6838 5.87866C11.6634 5.88318 11.6448 5.89353 11.6301 5.90844C11.6155 5.92334 11.6055 5.94218 11.6013 5.96266C11.5935 5.99438 11.615 6.04718 11.5863 6.06317C11.5698 6.07982 11.5072 6.06864 11.5098 5.98066C11.5062 5.95304 11.4947 5.92704 11.4769 5.90568C11.464 5.89718 11.4486 5.89346 11.4334 5.89517C11.4058 5.89627 11.4064 5.90352 11.3914 5.92666C11.3827 5.95023 11.3776 5.97494 11.3761 6C11.3726 6.0313 11.3601 6.0419 11.3371 6.04651C11.3114 6.04651 11.3174 6.0493 11.2966 6.036C11.2842 6.02246 11.2696 6.01714 11.2696 5.994C11.2693 5.96744 11.2648 5.9411 11.2561 5.916C11.2436 5.90182 11.2267 5.89231 11.2081 5.88902C11.1002 5.88941 11.0924 6.01334 11.0986 6.06005C11.0906 6.06883 11.0865 6.28848 11.2336 6.34954C11.4311 6.44366 11.8013 6.40387 11.7856 6.08554C11.7856 6.05736 11.7794 5.9628 11.7767 5.93702C11.7706 5.91785 11.7579 5.90145 11.7409 5.89073C11.7239 5.88002 11.7036 5.87569 11.6837 5.87851L11.6838 5.87866ZM14.3329 5.88168C14.27 5.88515 14.2086 5.90202 14.1529 5.93117C14.022 6.0565 13.9913 6.25757 14.0943 6.38266C14.1947 6.43003 14.2947 6.53098 14.2278 6.58666C13.9441 6.88949 13.2061 7.3957 13.1689 7.488C13.1686 7.48877 13.1675 7.4903 13.1674 7.49102C13.1672 7.49174 13.1674 7.49342 13.1674 7.49405C13.1674 7.49467 13.1674 7.4953 13.1674 7.49554C13.1677 7.4966 13.1682 7.49762 13.1689 7.49856L13.1703 7.50005C13.1706 7.50005 13.1716 7.50005 13.1718 7.50005C13.1721 7.50005 13.173 7.50144 13.1733 7.50154C13.1736 7.50163 13.1744 7.50154 13.1748 7.50154L13.1763 7.50302C13.2138 7.52818 13.6755 7.5276 13.7268 7.50451C13.7272 7.50451 13.728 7.50322 13.7283 7.50302C13.7286 7.50283 13.7297 7.50302 13.7298 7.50302C13.7299 7.50302 13.7298 7.50163 13.7298 7.50154C13.8885 7.44302 14.6418 6.58205 14.6418 6.58205C14.6028 6.54845 14.5668 6.52397 14.5278 6.49056C14.486 6.45437 14.4902 6.41856 14.5278 6.38256C14.7144 6.27398 14.6552 6.03514 14.5578 5.92656C14.4875 5.89383 14.4103 5.87841 14.3328 5.88158L14.3329 5.88168ZM21.2569 5.8847C21.237 5.88667 21.2129 5.9172 21.1759 5.99573C21.0868 6.14155 21.0264 6.39547 21.0334 6.63322C21.2262 7.96829 21.2853 9.13661 21.4114 10.4717C21.4216 10.6008 21.4027 10.7885 21.3169 10.8632C20.9994 11.1947 20.5416 11.6036 20.0434 11.7917C19.9898 11.8519 20.1767 12.1085 20.4184 12.1082C20.8226 12.0613 21.1779 11.8346 21.5074 11.2368C21.5955 11.0976 21.7503 10.799 21.7549 10.5677C21.7857 9.21187 21.6866 8.1577 21.4834 7.17773C21.4704 7.09879 21.4745 7.01798 21.4954 6.94075C21.5216 6.9095 21.6103 6.94147 21.6574 6.86424C21.7265 6.79368 21.4729 6.2088 21.3289 5.98373C21.3001 5.92718 21.2824 5.88221 21.2569 5.88475L21.2569 5.8847ZM10.5303 5.9255C10.5002 5.93118 10.4722 5.94451 10.4488 5.96423C10.4254 5.98394 10.4075 6.00935 10.3968 6.03802C10.3844 6.24653 10.3889 6.45571 10.4103 6.6635C10.5077 7.00963 10.5385 7.31405 10.5858 7.66853C10.5989 8.1433 10.3116 7.87392 10.3248 7.63853C10.3911 7.33282 10.3732 6.85133 10.3143 6.7295C10.2675 6.60754 10.2135 6.57744 10.0998 6.5975C10.0095 6.59198 9.77646 6.84595 9.71127 7.26653C9.67813 7.40107 9.6521 7.53725 9.63327 7.67453C9.6014 7.89173 9.4575 8.04552 9.35727 7.64453C9.27063 7.35307 9.21735 6.63499 9.0723 6.80304C9.03073 7.36373 8.98138 8.35032 9.45778 8.45155C10.034 8.50694 9.71574 7.47744 9.9243 7.29053C9.9637 7.19818 10.0368 7.19654 10.0428 7.31304V8.18755C10.0375 8.47186 10.2246 8.55634 10.3698 8.61504C10.5209 8.60338 10.6211 8.6075 10.6803 8.75453C10.704 9.25862 10.728 9.76312 10.7523 10.268C10.7523 10.268 11.1016 10.3684 11.1183 9.4175C11.1351 8.85917 11.0072 8.39064 11.0823 8.28202C11.085 8.17531 11.2218 8.17003 11.3163 8.22202C11.467 8.32824 11.5338 8.45899 11.7678 8.40653C12.124 8.30842 12.3386 8.13552 12.3438 7.86202C12.323 7.6021 12.293 7.34194 12.1803 7.08202C12.1961 7.03474 12.1122 6.91181 12.1278 6.86453C12.1918 6.96475 12.2887 6.95645 12.3109 6.86453C12.2502 6.66475 12.1559 6.47338 12.0034 6.39053C11.8773 6.2795 11.6929 6.30298 11.6254 6.53453C11.5941 6.80136 11.7221 7.11758 11.9164 7.37602C11.9577 7.47682 12.0154 7.64482 11.9899 7.79602C11.8865 7.85501 11.784 7.83043 11.6974 7.73904C11.6974 7.73904 11.4139 7.52683 11.4139 7.47955C11.4891 6.99787 11.4301 6.94272 11.3884 6.80904C11.3593 6.62453 11.2718 6.56606 11.2009 6.44006C11.13 6.3649 11.0338 6.3649 10.9879 6.44006C10.8626 6.65731 10.9214 7.12368 11.0119 7.33258C11.0774 7.52458 11.1776 7.64458 11.1304 7.64458C11.0916 7.75315 11.0104 7.7279 10.9519 7.60258C10.8684 7.34338 10.8514 6.9576 10.8514 6.7836C10.8264 6.56789 10.7986 6.1068 10.6564 5.99011C10.6435 5.96873 10.6248 5.95137 10.6026 5.93998C10.5803 5.92858 10.5554 5.92361 10.5304 5.9256L10.5303 5.9255ZM12.5538 5.92853C12.525 5.93213 12.4936 5.9484 12.4563 5.95704C12.3338 5.99602 12.2191 6.10195 12.2553 6.30802C12.4001 7.18795 12.4945 7.85952 12.6393 8.7395C12.6616 8.84256 12.5752 8.9784 12.4638 8.96453C12.2745 8.83642 12.2275 8.57693 11.9043 8.58802C11.6704 8.59085 11.4037 8.84534 11.3703 9.09053C11.3314 9.28536 11.3175 9.49661 11.3703 9.66653C11.5347 9.86419 11.7317 9.84312 11.9043 9.79853C12.0463 9.74006 12.1632 9.60014 12.2134 9.63355C12.2134 9.63355 12.2148 9.63355 12.2149 9.63355C12.215 9.63355 12.2149 9.63485 12.2149 9.63504C12.2458 9.68918 12.2119 10.1469 11.5458 10.5005C11.1365 10.6843 10.8107 10.7282 10.6353 10.394C10.5267 10.1852 10.6432 9.38966 10.3758 9.5735C9.58503 11.6119 12.2286 11.8967 12.5238 9.6575C12.543 9.59434 12.6012 9.53098 12.6423 9.54653C12.6604 9.55421 12.6769 9.57874 12.6829 9.62453C12.6216 11.6518 10.6378 11.7908 10.3009 11.153C10.2173 11.0027 10.1922 10.6682 10.1839 10.4676C10.1686 10.3463 10.1382 10.2763 10.1029 10.2486C10.0226 10.1882 9.9145 10.3457 9.89142 10.6191C9.85782 10.8391 9.86742 10.8995 9.86742 11.1111C9.97302 12.7123 12.526 12.0243 12.9409 10.7016C13.1463 10.0178 12.9367 9.50194 13.0054 9.43862C13.006 9.43814 13.0078 9.43757 13.0084 9.43714C13.0091 9.4367 13.0107 9.43598 13.0115 9.43565C13.0122 9.43531 13.0137 9.4344 13.0145 9.43416C13.0174 9.43334 13.0205 9.43285 13.0235 9.43267C13.277 9.70565 13.6325 9.46738 13.7105 9.37267C13.7199 9.35873 13.7324 9.34705 13.7469 9.33847C13.7614 9.32989 13.7776 9.32463 13.7943 9.32305C13.8111 9.32147 13.828 9.32362 13.8439 9.32934C13.8597 9.33507 13.8741 9.34423 13.886 9.35616C14.0836 9.49824 14.4302 9.43128 14.5025 9.18067C14.5484 8.92994 14.5769 8.67635 14.588 8.4217C14.4592 8.46168 14.3553 8.49163 14.3135 8.5357C14.3036 8.54557 14.2969 8.55807 14.294 8.5717C14.2828 8.64413 14.2721 8.71675 14.261 8.78918C14.2599 8.79498 14.2579 8.80056 14.255 8.8057C14.2489 8.815 14.2407 8.82272 14.231 8.82821C14.1855 8.85307 14.1062 8.83886 14.102 8.77272C14.0408 8.49432 13.7887 8.45803 13.6355 8.88974C13.5325 8.97326 13.3445 8.98954 13.325 8.86426C13.3501 8.57467 13.2334 8.53579 12.9995 8.67226C12.9243 8.09861 12.8498 7.55093 12.7745 6.97728C12.872 6.97445 12.9614 7.04515 13.0505 6.93379C12.9541 6.63384 12.75 6.02357 12.635 5.9663C12.6341 5.96587 12.6329 5.96515 12.6321 5.96482C12.627 5.9589 12.6215 5.95338 12.6156 5.9483C12.6134 5.94653 12.6102 5.94384 12.6081 5.9423C12.606 5.94077 12.6026 5.93899 12.6006 5.93779C12.5958 5.93531 12.5908 5.9333 12.5856 5.93179C12.5754 5.92865 12.5647 5.92763 12.5541 5.92882L12.5538 5.92853ZM20.4421 5.93304C20.3409 5.93006 20.229 5.99381 20.2726 6.12053C20.2472 6.18965 20.49 6.42418 20.5291 6.55253C20.5996 6.74971 20.4753 6.93782 20.5486 6.96504C20.6161 6.99547 20.7099 6.76142 20.7451 6.54504C20.7858 6.37008 20.661 6.01157 20.4842 5.93755C20.4703 5.93464 20.4563 5.93313 20.4422 5.93304H20.4421ZM14.2967 6.14904C14.3253 6.15112 14.3527 6.16143 14.3756 6.17873C14.3985 6.19602 14.4159 6.21957 14.4257 6.24653C14.4548 6.31037 14.4401 6.37133 14.3927 6.38304C14.3453 6.39475 14.2838 6.35242 14.2547 6.28853C14.2256 6.22464 14.2403 6.16214 14.2877 6.15053C14.2907 6.14974 14.2937 6.14917 14.2967 6.1488V6.14904ZM25.6967 6.44453C25.6712 6.44204 25.6455 6.44615 25.622 6.45648C25.5986 6.46681 25.5782 6.48301 25.5628 6.5035C25.5474 6.524 25.5376 6.54811 25.5342 6.57351C25.5309 6.59891 25.5342 6.62475 25.5437 6.64853C25.5206 6.72336 25.7405 6.97757 25.7762 7.11653C25.8083 7.21541 25.7274 7.53413 25.7942 7.56355C25.8557 7.59648 25.9421 7.34338 25.9742 7.10904C25.992 6.98078 25.897 6.53069 25.7357 6.45053C25.723 6.44702 25.7098 6.445 25.6967 6.44453ZM19.3938 6.60053C19.4022 6.63816 19.4106 6.67598 19.4163 6.71453C19.4352 6.79766 19.4515 6.88022 19.4688 6.96202C19.396 6.86174 19.3358 6.78077 19.3098 6.75202C19.1451 6.55622 19.3135 6.62342 19.3938 6.60053ZM20.8458 7.31453C20.8253 7.3194 20.8066 7.33004 20.792 7.34519C20.7774 7.36034 20.7674 7.37937 20.7633 7.40002C20.7554 7.43174 20.7785 7.48306 20.7498 7.49904C20.7333 7.5157 20.6692 7.506 20.6718 7.41806C20.6681 7.38999 20.6567 7.36349 20.6388 7.34155C20.626 7.33305 20.6106 7.32933 20.5953 7.33104C20.5678 7.33214 20.5684 7.33939 20.5533 7.36253C20.545 7.38622 20.5399 7.41095 20.5383 7.43602C20.5349 7.46731 20.5239 7.47792 20.5009 7.48253C20.4751 7.48253 20.4797 7.48531 20.4589 7.47202C20.4465 7.45848 20.4319 7.45315 20.4319 7.43002C20.4316 7.40346 20.4271 7.37712 20.4184 7.35202C20.4058 7.33829 20.3888 7.32929 20.3704 7.32653C20.2625 7.32691 20.2562 7.44936 20.2624 7.49602C20.2543 7.5048 20.2488 7.72594 20.3959 7.78704C20.5933 7.88117 20.9651 7.83984 20.9494 7.52155C20.9494 7.49338 20.9417 7.39882 20.9389 7.37304C20.9328 7.35386 20.9201 7.33746 20.9031 7.32675C20.8861 7.31603 20.8658 7.3117 20.8459 7.31453H20.8458ZM14.216 7.38053C14.1828 7.38013 14.1503 7.39009 14.123 7.40904C13.9484 7.50346 13.8808 7.78344 13.9896 7.94755C14.0911 8.09194 14.2517 8.03904 14.273 8.03904C14.4441 8.0604 14.5461 7.71806 14.5461 7.71806C14.5461 7.71806 14.5512 7.62178 14.3481 7.80355C14.2626 7.81958 14.251 7.78867 14.2296 7.74058C14.2092 7.65051 14.2187 7.55627 14.2566 7.47206C14.2755 7.41864 14.2566 7.3847 14.2161 7.38058L14.216 7.38053ZM23.588 7.42402C23.5334 7.4222 23.48 7.44065 23.4382 7.47583C23.3964 7.511 23.3691 7.56041 23.3615 7.61453C23.3619 7.69267 23.3968 7.73558 23.39 7.80653C23.3799 7.84709 23.3381 7.87373 23.2385 7.82602C23.2541 7.81162 23.174 7.69853 23.174 7.69853C23.0963 7.6512 22.9926 7.70107 22.925 7.74504C22.9008 7.79106 22.8863 7.84158 22.8824 7.89344C22.8786 7.94531 22.8854 7.99742 22.9025 8.04653C23.014 8.25259 23.3966 8.60419 23.579 8.60755C23.5825 8.42179 23.6005 8.17469 23.6105 8.02104C23.6149 7.96306 23.6284 7.89912 23.684 7.88453C23.7396 7.86994 23.8359 7.9404 23.837 7.88002C23.8269 7.76184 23.8034 7.58722 23.7365 7.50504C23.7198 7.4809 23.6977 7.461 23.6719 7.44694C23.6461 7.43288 23.6174 7.425 23.588 7.42402ZM15.8305 8.07038C15.8278 8.07169 15.8253 8.0732 15.823 8.0749C15.8218 8.07562 15.8197 8.07706 15.8185 8.07792C15.7893 8.10792 15.7583 8.13598 15.7255 8.16192C15.6396 8.2596 15.6242 8.32762 15.6295 8.52341C15.6343 8.5441 15.7927 8.98382 15.9265 9.2929C16.0168 9.61416 16.1004 9.98198 16.039 10.3294C15.8275 10.7887 15.4024 11.2006 14.992 11.4244C14.783 11.4916 14.6024 11.4685 14.554 11.4229L14.5526 11.4214C14.5129 11.3939 14.4813 11.3564 14.461 11.3126C14.4406 11.2689 14.4324 11.2205 14.4371 11.1724C14.4371 11.1724 14.4371 11.1711 14.4371 11.1709L14.4386 11.1695C14.7848 10.9283 15.1803 10.7331 15.49 10.082C15.5812 9.83314 15.6094 9.68357 15.5186 9.29899C15.4831 9.15562 15.4394 9.03763 15.3416 8.93602L15.3431 8.93453C15.402 8.9063 15.5549 9.01901 15.5786 8.94802C15.5424 8.76432 15.4179 8.5177 15.2771 8.3915C15.1537 8.27947 15.0195 8.2667 14.9066 8.36899C14.7794 8.43979 14.7523 8.694 14.8136 8.91648C14.8816 9.084 15.0652 9.11328 15.1961 9.45048C15.1961 9.45082 15.1961 9.45187 15.1961 9.45197C15.1988 9.47309 15.241 9.70358 15.1751 9.79699C15.1216 9.96374 14.4348 10.5054 14.3861 10.538C14.3856 10.5385 14.3821 10.5405 14.3816 10.541L14.3801 10.5425L14.3786 10.544L14.3771 10.5455H14.3741C14.3738 10.5453 14.3729 10.5443 14.3726 10.544C14.3724 10.5437 14.3726 10.5427 14.3726 10.5425C14.3726 10.5424 14.3714 10.5401 14.3712 10.5396C14.3691 10.526 14.3727 10.4916 14.3712 10.4361C14.3666 10.3346 14.4086 10.1049 14.4057 10.0656C14.4057 10.0656 14.4057 10.0642 14.4057 10.0641L14.4042 10.0626C14.4042 10.0626 14.4042 10.0612 14.4042 10.0611H14.4027C14.1757 10.2077 14.1007 10.6571 14.0592 10.7901C13.4844 11.1873 12.8317 11.4828 12.4557 11.8851C12.2599 12.1908 13.8045 11.534 13.9842 11.4546C13.9858 11.456 13.9874 11.4575 13.9887 11.4591C14.0229 11.4966 14.0258 11.6276 14.1282 11.7456C14.2888 11.9631 14.6301 12.0971 14.9622 12.0141C15.519 11.8128 15.8401 11.4333 16.1667 11.0121C16.2134 10.9442 16.2867 10.8907 16.3542 10.9431C16.5787 11.4457 17.226 11.8033 18.0627 11.8402C18.2564 11.6047 18.1635 11.4889 18.0853 11.4396C18.0613 11.4236 17.6691 11.2708 17.6083 11.1187C17.5699 10.9771 17.6631 10.8516 17.8498 10.7572C18.387 10.6922 18.9154 10.62 19.4263 10.4557C19.4315 10.284 19.5326 10.0272 19.6003 9.9157C19.6209 9.87654 19.6514 9.84345 19.6888 9.8197C19.6892 9.81931 19.69 9.81859 19.6903 9.81821C19.6906 9.81782 19.6916 9.81691 19.6918 9.81672C19.6919 9.81653 19.693 9.81547 19.6933 9.81523C19.6935 9.81499 19.6933 9.81278 19.6933 9.81226C19.6935 9.80722 19.693 9.80217 19.6918 9.79728L19.6048 9.7463L17.8903 9.73882C17.8737 9.73308 17.858 9.725 17.8438 9.71482C17.843 9.71419 17.8414 9.71242 17.8408 9.71184L17.8393 9.71035C17.839 9.71006 17.8381 9.70915 17.8378 9.70886C17.8376 9.70858 17.8366 9.70637 17.8363 9.70589L17.8348 9.7044C17.8348 9.7044 17.8348 9.70306 17.8348 9.70291L17.8334 9.70142C17.8334 9.70142 17.8334 9.70008 17.8334 9.69994C17.8334 9.69979 17.8334 9.69859 17.8334 9.69845C17.8334 9.6983 17.8334 9.6971 17.8334 9.69696C17.8334 9.69682 17.8334 9.69566 17.8334 9.69547C17.8334 9.69528 17.8334 9.69427 17.8334 9.69398C17.8334 9.6937 17.8334 9.69264 17.8334 9.6925C17.8334 9.69235 17.8334 9.69115 17.8334 9.69101C17.8334 9.69086 17.8334 9.68966 17.8334 9.68952L17.8348 9.68803C17.8353 9.68701 17.8358 9.68602 17.8363 9.68506C17.8515 9.67028 17.87 9.65946 17.8903 9.65357C18.2997 9.59779 19.0271 9.47856 19.0754 8.77906C19.0678 8.41469 18.9194 8.17613 18.4724 8.11003C18.1439 8.13542 17.9096 8.45318 17.9474 8.80306C17.9316 8.89723 17.9792 9.08213 17.8828 9.10306C17.2527 9.16066 16.5649 9.55546 16.5418 9.83803H16.5403L16.5388 9.83952L16.5359 9.84101H16.5329C16.5319 9.84134 16.5294 9.84226 16.5284 9.8425H16.5194C16.5178 9.84216 16.5146 9.84134 16.5134 9.84101C16.4724 9.82963 16.4196 9.762 16.4279 9.66701C16.3978 9.15144 16.2501 8.64961 15.9959 8.20003C15.9071 8.11118 15.8683 8.07523 15.8429 8.07106C15.8421 8.07106 15.8407 8.07106 15.84 8.07106H15.8325C15.8325 8.07106 15.8312 8.07106 15.831 8.07106L15.8305 8.07038ZM17.4715 8.32838C17.4511 8.33291 17.4324 8.34326 17.4178 8.35816C17.4031 8.37307 17.3931 8.3919 17.389 8.41238C17.3811 8.44411 17.4042 8.49691 17.3755 8.5129C17.359 8.52955 17.2949 8.51986 17.2975 8.43192C17.2938 8.40384 17.2824 8.37735 17.2645 8.35541C17.2523 8.34689 17.2373 8.34315 17.2225 8.3449C17.195 8.346 17.1941 8.35325 17.179 8.37638C17.1707 8.40008 17.1656 8.4248 17.164 8.44987C17.1606 8.48117 17.1496 8.49178 17.1266 8.49638C17.1008 8.49638 17.1069 8.49917 17.086 8.48587C17.0737 8.47234 17.0575 8.46701 17.0575 8.44387C17.0577 8.4174 17.0537 8.39107 17.0455 8.36587C17.0323 8.35211 17.0149 8.34314 16.996 8.34038C16.8882 8.34077 16.8818 8.46322 16.888 8.50987C16.88 8.51866 16.8745 8.73979 17.0215 8.8009C17.219 8.89502 17.6895 8.83963 17.575 8.53541C17.575 8.50723 17.5673 8.41267 17.5645 8.3869C17.5584 8.36772 17.5458 8.35132 17.5287 8.3406C17.5117 8.32989 17.4914 8.32556 17.4715 8.32838H17.4715ZM24.094 8.59987C24.0885 8.59894 24.0828 8.59945 24.0775 8.60136C24.0775 8.60136 23.1627 9.25219 23.14 9.27485C23.0493 9.35549 23.0947 9.63912 23.14 9.60634C23.2056 9.63154 24.1266 9.00739 24.1091 8.93434C24.1492 8.93669 24.1685 8.61326 24.0941 8.59982L24.094 8.59987ZM18.336 8.69635C18.3831 8.69463 18.4296 8.70718 18.4694 8.73235C18.5378 8.77186 18.5798 8.83152 18.5745 8.87486C18.5745 8.87606 18.5747 8.87822 18.5745 8.87938C18.5742 8.88053 18.5718 8.88274 18.5715 8.88389C18.5712 8.88504 18.5704 8.8873 18.57 8.8884C18.5696 8.8895 18.5689 8.8907 18.5685 8.89142C18.5682 8.89214 18.5674 8.89373 18.567 8.89445C18.5645 8.89829 18.5614 8.90181 18.5581 8.90496C18.5252 8.93563 18.4494 8.93126 18.3781 8.88998C18.3104 8.85086 18.2686 8.79072 18.2731 8.74747C18.2731 8.74627 18.2744 8.74411 18.2746 8.74296C18.2758 8.73768 18.2778 8.73262 18.2806 8.72798C18.2815 8.7263 18.2824 8.72352 18.2836 8.72198C18.2838 8.7217 18.2848 8.72078 18.2851 8.7205C18.2874 8.71781 18.2899 8.71531 18.2926 8.71301C18.3053 8.70361 18.3203 8.69789 18.3361 8.6965L18.336 8.69635ZM10.3243 8.86138C9.85023 8.87002 9.15606 9.48274 9.13777 9.82286C9.63798 9.58286 10.1293 9.35146 10.6378 9.10286C10.5557 8.98037 10.633 8.86997 10.3243 8.86138ZM11.8603 9.0744C11.8873 9.0745 11.9135 9.08311 11.9353 9.099C11.9572 9.11489 11.9734 9.13726 11.9818 9.16291C11.9913 9.18851 11.9938 9.21619 11.9891 9.24309C11.9843 9.26998 11.9725 9.29513 11.9548 9.31594C11.9548 9.31618 11.9548 9.31718 11.9548 9.31742C11.9548 9.31766 11.9538 9.31978 11.9533 9.32045C11.9334 9.34608 11.8635 9.33547 11.8138 9.33547C11.7892 9.3377 11.7644 9.33314 11.7422 9.32231C11.72 9.31147 11.7012 9.29476 11.6878 9.27398C11.6705 9.21955 11.7231 9.16608 11.7463 9.12547C11.7466 9.12509 11.7476 9.12437 11.7478 9.12398C11.7509 9.11963 11.7544 9.11561 11.7583 9.11198C11.7817 9.09217 11.8104 9.07966 11.8408 9.07598C11.8473 9.07505 11.8538 9.07455 11.8603 9.0745L11.8603 9.0744ZM23.916 9.26304C23.8918 9.26608 23.8686 9.27463 23.8483 9.28804C23.828 9.30145 23.811 9.31936 23.7986 9.34038C23.7863 9.3614 23.779 9.38497 23.7772 9.40927C23.7755 9.43357 23.7793 9.45795 23.7885 9.48053C23.7653 9.55536 23.9028 9.8171 23.9385 9.95602C23.9705 10.0549 23.8971 10.3346 23.964 10.364C24.0254 10.3969 24.1872 10.198 24.1814 9.94853C24.1993 9.82027 24.1357 9.34771 23.9745 9.2675C23.9554 9.26221 23.9356 9.26073 23.916 9.26304ZM13.6769 9.7248C13.6024 9.72998 13.5359 9.76982 13.5659 9.8748C13.5614 9.95098 13.7764 10.0436 13.7894 10.2198C13.8201 10.2925 13.7435 10.5252 13.8074 10.5468C13.8662 10.5708 13.9477 10.386 13.9784 10.2139C13.9955 10.1196 13.9046 9.78974 13.7504 9.7309C13.7263 9.72547 13.7016 9.72345 13.6769 9.7249L13.6769 9.7248ZM16.7414 10.1433C16.7471 10.1429 16.7521 10.1433 16.7579 10.1433H16.7609C16.9519 10.1952 17.2335 10.2006 17.478 10.2258C17.6771 10.2384 17.7756 10.3943 17.589 10.4598C17.405 10.5228 17.2283 10.572 17.2275 10.8378C17.2515 10.9695 17.2467 11.0386 17.226 11.0703C17.2242 11.073 17.2222 11.0755 17.22 11.0778L17.2185 11.0793C17.2182 11.0796 17.2173 11.0806 17.217 11.0808C17.2168 11.081 17.2158 11.0821 17.2155 11.0823L17.2141 11.0838L17.2111 11.0853C17.2082 11.087 17.2052 11.0886 17.2021 11.0898C17.1992 11.0905 17.1962 11.091 17.1931 11.0913C17.1494 11.0977 17.0859 11.056 17.0386 11.0313C16.9252 10.9497 16.607 10.7526 16.5616 10.3293C16.5606 10.3051 16.5645 10.2809 16.5731 10.2583C16.5817 10.2356 16.5948 10.2149 16.6116 10.1975C16.6285 10.1801 16.6487 10.1663 16.671 10.157C16.6934 10.1477 16.7174 10.143 16.7416 10.1433L16.7414 10.1433ZM9.25628 10.4688C9.24433 10.4692 9.22047 10.5048 9.18879 10.5453C8.90679 10.9946 8.88159 11.6652 9.0373 11.8653C9.07601 11.9102 9.12614 11.9438 9.18238 11.9626C9.23862 11.9813 9.29888 11.9845 9.35679 11.9718C9.53396 11.895 9.61181 11.5361 9.56981 11.4048C9.51068 11.3123 9.46383 11.2976 9.40484 11.3763C9.28004 11.6294 9.22829 11.4563 9.21735 11.3148C9.20328 11.0773 9.21535 10.8388 9.25335 10.6039C9.26885 10.5036 9.26828 10.4685 9.25637 10.4689L9.25628 10.4688ZM18.8641 11.0589C18.8413 11.0575 18.8185 11.0622 18.7981 11.0724C18.7936 11.0724 18.5962 11.2059 18.5326 11.2989C18.4938 11.3284 18.4982 11.3541 18.5101 11.4054C18.5403 11.4749 18.5936 11.4531 18.6541 11.4204C18.7343 11.4095 18.7731 11.4621 18.7666 11.5584C18.7544 11.5862 18.7495 11.6167 18.7524 11.6469C18.7552 11.6771 18.7658 11.706 18.7831 11.731C18.8043 11.7534 18.8327 11.7677 18.8633 11.7716C18.894 11.7754 18.925 11.7685 18.9511 11.752C19.1426 11.6789 19.2619 11.608 19.5301 11.5495C19.6005 11.5481 19.5964 11.3597 19.4851 11.353C19.3398 11.3603 19.2058 11.3677 19.0606 11.482C18.9712 11.5026 18.9559 11.4484 18.9361 11.3995C18.9134 11.2785 18.9872 11.1931 18.9721 11.1025C18.9409 11.0781 18.9034 11.063 18.8641 11.059V11.0589ZM25.0157 11.2884C24.9801 11.2895 24.9426 11.2944 24.8882 11.2989C24.8294 11.3114 24.809 11.3373 24.7982 11.4084C24.8025 11.5165 24.8686 11.5111 24.9362 11.5539C24.9754 11.6038 25.001 11.6489 24.9333 11.7309C24.8691 11.7897 24.8234 11.8221 24.7593 11.8809C24.729 11.9326 24.7101 12.012 24.8028 12.0369C24.9738 12.0849 25.3697 11.8278 25.3697 11.8224C25.3896 11.8058 25.4038 11.7836 25.4105 11.7586C25.4173 11.7336 25.4161 11.7072 25.4072 11.6829C25.3698 11.6401 25.2854 11.6658 25.2287 11.6589C25.2017 11.6589 25.1131 11.6458 25.1552 11.5674C25.1859 11.5252 25.2101 11.4787 25.2272 11.4294C25.2539 11.3706 25.2304 11.331 25.1342 11.2989C25.0953 11.291 25.0555 11.2875 25.0157 11.2884ZM22.4458 16.4916C22.4454 16.4916 22.4447 16.4928 22.4443 16.4931C22.1598 16.5661 22.1687 16.8615 22.3514 16.9911C19.3468 16.9911 14.7362 16.9401 13.7474 16.9401C13.1942 16.9401 11.444 16.8741 11.4103 16.8741C11.7857 17.4231 12.3294 17.5349 13.0408 17.5461C14.3752 17.5461 20.5586 17.5296 22.3183 17.5296C22.1932 17.7517 22.3296 18.1092 22.4278 18.1746C22.4298 18.176 22.4332 18.1781 22.4353 18.1791C22.4391 18.181 22.4431 18.1825 22.4473 18.1836C22.4484 18.1839 22.4506 18.1836 22.4518 18.1836C22.5683 18.2112 22.6198 18.1268 22.6588 18.0651C22.8478 18.0818 23.9116 18.0972 24.0088 18.0636C24.0091 18.0636 24.01 18.0623 24.0103 18.0622C24.0761 18.1591 24.1415 18.2506 24.2668 18.2347C24.4861 18.1876 24.6588 18.1638 24.6643 17.7187C24.6643 17.7187 24.6419 16.9603 24.1438 17.0077C24.0259 17.0255 23.6953 17.0587 23.6953 17.0587C23.3126 17.0132 23.0319 17.0086 22.6018 16.9927C22.6415 16.9423 22.7116 16.7383 22.6258 16.6642C22.5964 16.6426 22.5598 16.6335 22.5238 16.6387H22.5223C22.5216 16.6387 22.5199 16.6387 22.5193 16.6387C22.5187 16.6387 22.5181 16.6373 22.5178 16.6372C22.5163 16.6369 22.5148 16.6364 22.5133 16.6357C22.5105 16.6335 22.508 16.631 22.5058 16.6283C22.5053 16.6276 22.5033 16.626 22.5028 16.6253C22.4811 16.5936 22.4692 16.5159 22.4548 16.4963L22.4534 16.4948C22.4534 16.4948 22.452 16.4935 22.4519 16.4933C22.4509 16.4928 22.4499 16.4923 22.4489 16.4918H22.4474C22.4474 16.4918 22.4461 16.4918 22.4459 16.4918L22.4458 16.4916ZM22.6498 17.5761C22.6503 17.5759 22.6508 17.5764 22.6513 17.5761C23.0896 17.5975 23.5015 17.5802 23.9398 17.6016C24.0093 17.6606 23.9745 17.7959 23.9293 17.8206C23.9269 17.8218 23.9244 17.8228 23.9218 17.8236C23.9198 17.8238 23.9178 17.8238 23.9158 17.8236C23.9138 17.8238 23.9118 17.8238 23.9098 17.8236C23.7673 17.82 23.6848 17.8167 23.5423 17.8131C23.5422 17.806 23.5412 17.799 23.5394 17.7922C23.5058 17.692 23.261 17.6988 23.2034 17.7772C23.2025 17.7783 23.2011 17.7805 23.2004 17.7817C23.1997 17.7828 23.1982 17.7861 23.1974 17.7877C23.1966 17.7893 23.1951 17.7931 23.1944 17.7952C23.1937 17.7986 23.1932 17.8022 23.1929 17.8057C23.1921 17.8096 23.1916 17.8137 23.1914 17.8177C22.999 17.8408 22.8259 17.8113 22.6334 17.8042C22.577 17.7339 22.5836 17.6068 22.65 17.5762L22.6498 17.5761Z" fill="white"/>
</g>
<defs>
<clipPath id="clip0_590_85">
<rect width="36" height="24" fill="white"/>
</clipPath>
</defs>
</svg>
